# xmcd
#
# Track frame offsets: 
#        150
#        15160
#        30559
#        44973
#        59699
#        70991
#        80272
#        97121
#        110782
#        124369
#        139515
#        152877
#
# Disc length: 2203 seconds
#
# Revision: 1
# Processed by: cddbd v1.5.2PL0 Copyright (c) Steve Scherf et al.
# Submitted via: ExactAudioCopyFreeDBPlugin 1.0
#
DISCID=ab08990c
DTITLE=Pelle Miljoona Unabomber! - Dharmapummi
DYEAR=2009
DGENRE=Pop
TTITLE0=Kuka Sä Oot?
TTITLE1=68
TTITLE2=Eläköön!
TTITLE3=Kauan Siitä Aikaa On
TTITLE4=Alakulontie 55
TTITLE5=Muukalaisia Yössä
TTITLE6=Kivierämaa
TTITLE7=Katulaulaja
TTITLE8=Arosusi
TTITLE9=Lolita Love
TTITLE10=Liikaa
TTITLE11=Dharmapummi
EXTD=
EXTT0=
EXTT1=
EXTT2=
EXTT3=
EXTT4=
EXTT5=
EXTT6=
EXTT7=
EXTT8=
EXTT9=
EXTT10=
EXTT11=
PLAYORDER=
